<?xml version="1.0" encoding="utf-8" standalone="no"?>
<!DOCTYPE svg PUBLIC "-//W3C//DTD SVG 1.1//EN"
  "http://www.w3.org/Graphics/SVG/1.1/DTD/svg11.dtd">
<svg xmlns:xlink="http://www.w3.org/1999/xlink" width="720pt" height="288pt" viewBox="0 0 720 288" xmlns="http://www.w3.org/2000/svg" version="1.1">
 <metadata>
  <rdf:RDF xmlns:dc="http://purl.org/dc/elements/1.1/" xmlns:cc="http://creativecommons.org/ns#" xmlns:rdf="http://www.w3.org/1999/02/22-rdf-syntax-ns#">
   <cc:Work>
    <dc:type rdf:resource="http://purl.org/dc/dcmitype/StillImage"/>
    <dc:date>2024-11-24T21:44:08.177206</dc:date>
    <dc:format>image/svg+xml</dc:format>
    <dc:creator>
     <cc:Agent>
      <dc:title>Matplotlib v3.9.2, https://matplotlib.org/</dc:title>
     </cc:Agent>
    </dc:creator>
   </cc:Work>
  </rdf:RDF>
 </metadata>
 <defs>
  <style type="text/css">*{stroke-linejoin: round; stroke-linecap: butt}</style>
 </defs>
 <g id="figure_1">
  <g id="patch_1">
   <path d="M 0 288 
L 720 288 
L 720 0 
L 0 0 
z
" style="fill: #ffffff"/>
  </g>
  <g id="axes_1">
   <g id="patch_2">
    <path d="M 41.15 243.16 
L 709.2 243.16 
L 709.2 21.72 
L 41.15 21.72 
z
" style="fill: #ffffff"/>
   </g>
   <g id="matplotlib.axis_1">
    <g id="xtick_1">
     <g id="line2d_1">
      <path d="M 70.053238 243.16 
L 70.053238 21.72 
" clip-path="url(#pa8c08e2093)" style="fill: none; stroke: #b0b0b0; stroke-width: 0.8; stroke-linecap: square"/>
     </g>
     <g id="line2d_2">
      <defs>
       <path id="m825878f107" d="M 0 0 
L 0 3.5 
" style="stroke: #000000; stroke-width: 0.8"/>
      </defs>
      <g>
       <use xlink:href="#m825878f107" x="70.053238" y="243.16" style="stroke: #000000; stroke-width: 0.8"/>
      </g>
     </g>
     <g id="text_1">
      <!-- 0 -->
      <g transform="translate(66.871988 257.758438) scale(0.1 -0.1)">
       <defs>
        <path id="DejaVuSans-30" d="M 2034 4250 
Q 1547 4250 1301 3770 
Q 1056 3291 1056 2328 
Q 1056 1369 1301 889 
Q 1547 409 2034 409 
Q 2525 409 2770 889 
Q 3016 1369 3016 2328 
Q 3016 3291 2770 3770 
Q 2525 4250 2034 4250 
z
M 2034 4750 
Q 2819 4750 3233 4129 
Q 3647 3509 3647 2328 
Q 3647 1150 3233 529 
Q 2819 -91 2034 -91 
Q 1250 -91 836 529 
Q 422 1150 422 2328 
Q 422 3509 836 4129 
Q 1250 4750 2034 4750 
z
" transform="scale(0.015625)"/>
       </defs>
       <use xlink:href="#DejaVuSans-30"/>
      </g>
     </g>
    </g>
    <g id="xtick_2">
     <g id="line2d_3">
      <path d="M 191.942512 243.16 
L 191.942512 21.72 
" clip-path="url(#pa8c08e2093)" style="fill: none; stroke: #b0b0b0; stroke-width: 0.8; stroke-linecap: square"/>
     </g>
     <g id="line2d_4">
      <g>
       <use xlink:href="#m825878f107" x="191.942512" y="243.16" style="stroke: #000000; stroke-width: 0.8"/>
      </g>
     </g>
     <g id="text_2">
      <!-- 2 -->
      <g transform="translate(188.761262 257.758438) scale(0.1 -0.1)">
       <defs>
        <path id="DejaVuSans-32" d="M 1228 531 
L 3431 531 
L 3431 0 
L 469 0 
L 469 531 
Q 828 903 1448 1529 
Q 2069 2156 2228 2338 
Q 2531 2678 2651 2914 
Q 2772 3150 2772 3378 
Q 2772 3750 2511 3984 
Q 2250 4219 1831 4219 
Q 1534 4219 1204 4116 
Q 875 4013 500 3803 
L 500 4441 
Q 881 4594 1212 4672 
Q 1544 4750 1819 4750 
Q 2544 4750 2975 4387 
Q 3406 4025 3406 3419 
Q 3406 3131 3298 2873 
Q 3191 2616 2906 2266 
Q 2828 2175 2409 1742 
Q 1991 1309 1228 531 
z
" transform="scale(0.015625)"/>
       </defs>
       <use xlink:href="#DejaVuSans-32"/>
      </g>
     </g>
    </g>
    <g id="xtick_3">
     <g id="line2d_5">
      <path d="M 313.831785 243.16 
L 313.831785 21.72 
" clip-path="url(#pa8c08e2093)" style="fill: none; stroke: #b0b0b0; stroke-width: 0.8; stroke-linecap: square"/>
     </g>
     <g id="line2d_6">
      <g>
       <use xlink:href="#m825878f107" x="313.831785" y="243.16" style="stroke: #000000; stroke-width: 0.8"/>
      </g>
     </g>
     <g id="text_3">
      <!-- 4 -->
      <g transform="translate(310.650535 257.758438) scale(0.1 -0.1)">
       <defs>
        <path id="DejaVuSans-34" d="M 2419 4116 
L 825 1625 
L 2419 1625 
L 2419 4116 
z
M 2253 4666 
L 3047 4666 
L 3047 1625 
L 3713 1625 
L 3713 1100 
L 3047 1100 
L 3047 0 
L 2419 0 
L 2419 1100 
L 313 1100 
L 313 1709 
L 2253 4666 
z
" transform="scale(0.015625)"/>
       </defs>
       <use xlink:href="#DejaVuSans-34"/>
      </g>
     </g>
    </g>
    <g id="xtick_4">
     <g id="line2d_7">
      <path d="M 435.721059 243.16 
L 435.721059 21.72 
" clip-path="url(#pa8c08e2093)" style="fill: none; stroke: #b0b0b0; stroke-width: 0.8; stroke-linecap: square"/>
     </g>
     <g id="line2d_8">
      <g>
       <use xlink:href="#m825878f107" x="435.721059" y="243.16" style="stroke: #000000; stroke-width: 0.8"/>
      </g>
     </g>
     <g id="text_4">
      <!-- 6 -->
      <g transform="translate(432.539809 257.758438) scale(0.1 -0.1)">
       <defs>
        <path id="DejaVuSans-36" d="M 2113 2584 
Q 1688 2584 1439 2293 
Q 1191 2003 1191 1497 
Q 1191 994 1439 701 
Q 1688 409 2113 409 
Q 2538 409 2786 701 
Q 3034 994 3034 1497 
Q 3034 2003 2786 2293 
Q 2538 2584 2113 2584 
z
M 3366 4563 
L 3366 3988 
Q 3128 4100 2886 4159 
Q 2644 4219 2406 4219 
Q 1781 4219 1451 3797 
Q 1122 3375 1075 2522 
Q 1259 2794 1537 2939 
Q 1816 3084 2150 3084 
Q 2853 3084 3261 2657 
Q 3669 2231 3669 1497 
Q 3669 778 3244 343 
Q 2819 -91 2113 -91 
Q 1303 -91 875 529 
Q 447 1150 447 2328 
Q 447 3434 972 4092 
Q 1497 4750 2381 4750 
Q 2619 4750 2861 4703 
Q 3103 4656 3366 4563 
z
" transform="scale(0.015625)"/>
       </defs>
       <use xlink:href="#DejaVuSans-36"/>
      </g>
     </g>
    </g>
    <g id="xtick_5">
     <g id="line2d_9">
      <path d="M 557.610333 243.16 
L 557.610333 21.72 
" clip-path="url(#pa8c08e2093)" style="fill: none; stroke: #b0b0b0; stroke-width: 0.8; stroke-linecap: square"/>
     </g>
     <g id="line2d_10">
      <g>
       <use xlink:href="#m825878f107" x="557.610333" y="243.16" style="stroke: #000000; stroke-width: 0.8"/>
      </g>
     </g>
     <g id="text_5">
      <!-- 8 -->
      <g transform="translate(554.429083 257.758438) scale(0.1 -0.1)">
       <defs>
        <path id="DejaVuSans-38" d="M 2034 2216 
Q 1584 2216 1326 1975 
Q 1069 1734 1069 1313 
Q 1069 891 1326 650 
Q 1584 409 2034 409 
Q 2484 409 2743 651 
Q 3003 894 3003 1313 
Q 3003 1734 2745 1975 
Q 2488 2216 2034 2216 
z
M 1403 2484 
Q 997 2584 770 2862 
Q 544 3141 544 3541 
Q 544 4100 942 4425 
Q 1341 4750 2034 4750 
Q 2731 4750 3128 4425 
Q 3525 4100 3525 3541 
Q 3525 3141 3298 2862 
Q 3072 2584 2669 2484 
Q 3125 2378 3379 2068 
Q 3634 1759 3634 1313 
Q 3634 634 3220 271 
Q 2806 -91 2034 -91 
Q 1263 -91 848 271 
Q 434 634 434 1313 
Q 434 1759 690 2068 
Q 947 2378 1403 2484 
z
M 1172 3481 
Q 1172 3119 1398 2916 
Q 1625 2713 2034 2713 
Q 2441 2713 2670 2916 
Q 2900 3119 2900 3481 
Q 2900 3844 2670 4047 
Q 2441 4250 2034 4250 
Q 1625 4250 1398 4047 
Q 1172 3844 1172 3481 
z
" transform="scale(0.015625)"/>
       </defs>
       <use xlink:href="#DejaVuSans-38"/>
      </g>
     </g>
    </g>
    <g id="xtick_6">
     <g id="line2d_11">
      <path d="M 679.499606 243.16 
L 679.499606 21.72 
" clip-path="url(#pa8c08e2093)" style="fill: none; stroke: #b0b0b0; stroke-width: 0.8; stroke-linecap: square"/>
     </g>
     <g id="line2d_12">
      <g>
       <use xlink:href="#m825878f107" x="679.499606" y="243.16" style="stroke: #000000; stroke-width: 0.8"/>
      </g>
     </g>
     <g id="text_6">
      <!-- 10 -->
      <g transform="translate(673.137106 257.758438) scale(0.1 -0.1)">
       <defs>
        <path id="DejaVuSans-31" d="M 794 531 
L 1825 531 
L 1825 4091 
L 703 3866 
L 703 4441 
L 1819 4666 
L 2450 4666 
L 2450 531 
L 3481 531 
L 3481 0 
L 794 0 
L 794 531 
z
" transform="scale(0.015625)"/>
       </defs>
       <use xlink:href="#DejaVuSans-31"/>
       <use xlink:href="#DejaVuSans-30" x="63.623047"/>
      </g>
     </g>
    </g>
    <g id="text_7">
     <!-- Training Steps -->
     <g transform="translate(332.809375 272.95625) scale(0.12 -0.12)">
      <defs>
       <path id="DejaVuSans-54" d="M -19 4666 
L 3928 4666 
L 3928 4134 
L 2272 4134 
L 2272 0 
L 1638 0 
L 1638 4134 
L -19 4134 
L -19 4666 
z
" transform="scale(0.015625)"/>
       <path id="DejaVuSans-72" d="M 2631 2963 
Q 2534 3019 2420 3045 
Q 2306 3072 2169 3072 
Q 1681 3072 1420 2755 
Q 1159 2438 1159 1844 
L 1159 0 
L 581 0 
L 581 3500 
L 1159 3500 
L 1159 2956 
Q 1341 3275 1631 3429 
Q 1922 3584 2338 3584 
Q 2397 3584 2469 3576 
Q 2541 3569 2628 3553 
L 2631 2963 
z
" transform="scale(0.015625)"/>
       <path id="DejaVuSans-61" d="M 2194 1759 
Q 1497 1759 1228 1600 
Q 959 1441 959 1056 
Q 959 750 1161 570 
Q 1363 391 1709 391 
Q 2188 391 2477 730 
Q 2766 1069 2766 1631 
L 2766 1759 
L 2194 1759 
z
M 3341 1997 
L 3341 0 
L 2766 0 
L 2766 531 
Q 2569 213 2275 61 
Q 1981 -91 1556 -91 
Q 1019 -91 701 211 
Q 384 513 384 1019 
Q 384 1609 779 1909 
Q 1175 2209 1959 2209 
L 2766 2209 
L 2766 2266 
Q 2766 2663 2505 2880 
Q 2244 3097 1772 3097 
Q 1472 3097 1187 3025 
Q 903 2953 641 2809 
L 641 3341 
Q 956 3463 1253 3523 
Q 1550 3584 1831 3584 
Q 2591 3584 2966 3190 
Q 3341 2797 3341 1997 
z
" transform="scale(0.015625)"/>
       <path id="DejaVuSans-69" d="M 603 3500 
L 1178 3500 
L 1178 0 
L 603 0 
L 603 3500 
z
M 603 4863 
L 1178 4863 
L 1178 4134 
L 603 4134 
L 603 4863 
z
" transform="scale(0.015625)"/>
       <path id="DejaVuSans-6e" d="M 3513 2113 
L 3513 0 
L 2938 0 
L 2938 2094 
Q 2938 2591 2744 2837 
Q 2550 3084 2163 3084 
Q 1697 3084 1428 2787 
Q 1159 2491 1159 1978 
L 1159 0 
L 581 0 
L 581 3500 
L 1159 3500 
L 1159 2956 
Q 1366 3272 1645 3428 
Q 1925 3584 2291 3584 
Q 2894 3584 3203 3211 
Q 3513 2838 3513 2113 
z
" transform="scale(0.015625)"/>
       <path id="DejaVuSans-67" d="M 2906 1791 
Q 2906 2416 2648 2759 
Q 2391 3103 1925 3103 
Q 1463 3103 1205 2759 
Q 947 2416 947 1791 
Q 947 1169 1205 825 
Q 1463 481 1925 481 
Q 2391 481 2648 825 
Q 2906 1169 2906 1791 
z
M 3481 434 
Q 3481 -459 3084 -895 
Q 2688 -1331 1869 -1331 
Q 1566 -1331 1297 -1286 
Q 1028 -1241 775 -1147 
L 775 -588 
Q 1028 -725 1275 -790 
Q 1522 -856 1778 -856 
Q 2344 -856 2625 -561 
Q 2906 -266 2906 331 
L 2906 616 
Q 2728 306 2450 153 
Q 2172 0 1784 0 
Q 1141 0 747 490 
Q 353 981 353 1791 
Q 353 2603 747 3093 
Q 1141 3584 1784 3584 
Q 2172 3584 2450 3431 
Q 2728 3278 2906 2969 
L 2906 3500 
L 3481 3500 
L 3481 434 
z
" transform="scale(0.015625)"/>
       <path id="DejaVuSans-20" transform="scale(0.015625)"/>
       <path id="DejaVuSans-53" d="M 3425 4513 
L 3425 3897 
Q 3066 4069 2747 4153 
Q 2428 4238 2131 4238 
Q 1616 4238 1336 4038 
Q 1056 3838 1056 3469 
Q 1056 3159 1242 3001 
Q 1428 2844 1947 2747 
L 2328 2669 
Q 3034 2534 3370 2195 
Q 3706 1856 3706 1288 
Q 3706 609 3251 259 
Q 2797 -91 1919 -91 
Q 1588 -91 1214 -16 
Q 841 59 441 206 
L 441 856 
Q 825 641 1194 531 
Q 1563 422 1919 422 
Q 2459 422 2753 634 
Q 3047 847 3047 1241 
Q 3047 1584 2836 1778 
Q 2625 1972 2144 2069 
L 1759 2144 
Q 1053 2284 737 2584 
Q 422 2884 422 3419 
Q 422 4038 858 4394 
Q 1294 4750 2059 4750 
Q 2388 4750 2728 4690 
Q 3069 4631 3425 4513 
z
" transform="scale(0.015625)"/>
       <path id="DejaVuSans-74" d="M 1172 4494 
L 1172 3500 
L 2356 3500 
L 2356 3053 
L 1172 3053 
L 1172 1153 
Q 1172 725 1289 603 
Q 1406 481 1766 481 
L 2356 481 
L 2356 0 
L 1766 0 
Q 1100 0 847 248 
Q 594 497 594 1153 
L 594 3053 
L 172 3053 
L 172 3500 
L 594 3500 
L 594 4494 
L 1172 4494 
z
" transform="scale(0.015625)"/>
       <path id="DejaVuSans-65" d="M 3597 1894 
L 3597 1613 
L 953 1613 
Q 991 1019 1311 708 
Q 1631 397 2203 397 
Q 2534 397 2845 478 
Q 3156 559 3463 722 
L 3463 178 
Q 3153 47 2828 -22 
Q 2503 -91 2169 -91 
Q 1331 -91 842 396 
Q 353 884 353 1716 
Q 353 2575 817 3079 
Q 1281 3584 2069 3584 
Q 2775 3584 3186 3129 
Q 3597 2675 3597 1894 
z
M 3022 2063 
Q 3016 2534 2758 2815 
Q 2500 3097 2075 3097 
Q 1594 3097 1305 2825 
Q 1016 2553 972 2059 
L 3022 2063 
z
" transform="scale(0.015625)"/>
       <path id="DejaVuSans-70" d="M 1159 525 
L 1159 -1331 
L 581 -1331 
L 581 3500 
L 1159 3500 
L 1159 2969 
Q 1341 3281 1617 3432 
Q 1894 3584 2278 3584 
Q 2916 3584 3314 3078 
Q 3713 2572 3713 1747 
Q 3713 922 3314 415 
Q 2916 -91 2278 -91 
Q 1894 -91 1617 61 
Q 1341 213 1159 525 
z
M 3116 1747 
Q 3116 2381 2855 2742 
Q 2594 3103 2138 3103 
Q 1681 3103 1420 2742 
Q 1159 2381 1159 1747 
Q 1159 1113 1420 752 
Q 1681 391 2138 391 
Q 2594 391 2855 752 
Q 3116 1113 3116 1747 
z
" transform="scale(0.015625)"/>
       <path id="DejaVuSans-73" d="M 2834 3397 
L 2834 2853 
Q 2591 2978 2328 3040 
Q 2066 3103 1784 3103 
Q 1356 3103 1142 2972 
Q 928 2841 928 2578 
Q 928 2378 1081 2264 
Q 1234 2150 1697 2047 
L 1894 2003 
Q 2506 1872 2764 1633 
Q 3022 1394 3022 966 
Q 3022 478 2636 193 
Q 2250 -91 1575 -91 
Q 1294 -91 989 -36 
Q 684 19 347 128 
L 347 722 
Q 666 556 975 473 
Q 1284 391 1588 391 
Q 1994 391 2212 530 
Q 2431 669 2431 922 
Q 2431 1156 2273 1281 
Q 2116 1406 1581 1522 
L 1381 1569 
Q 847 1681 609 1914 
Q 372 2147 372 2553 
Q 372 3047 722 3315 
Q 1072 3584 1716 3584 
Q 2034 3584 2315 3537 
Q 2597 3491 2834 3397 
z
" transform="scale(0.015625)"/>
      </defs>
      <use xlink:href="#DejaVuSans-54"/>
      <use xlink:href="#DejaVuSans-72" x="46.333984"/>
      <use xlink:href="#DejaVuSans-61" x="87.447266"/>
      <use xlink:href="#DejaVuSans-69" x="148.726562"/>
      <use xlink:href="#DejaVuSans-6e" x="176.509766"/>
      <use xlink:href="#DejaVuSans-69" x="239.888672"/>
      <use xlink:href="#DejaVuSans-6e" x="267.671875"/>
      <use xlink:href="#DejaVuSans-67" x="331.050781"/>
      <use xlink:href="#DejaVuSans-20" x="394.527344"/>
      <use xlink:href="#DejaVuSans-53" x="426.314453"/>
      <use xlink:href="#DejaVuSans-74" x="489.791016"/>
      <use xlink:href="#DejaVuSans-65" x="529"/>
      <use xlink:href="#DejaVuSans-70" x="590.523438"/>
      <use xlink:href="#DejaVuSans-73" x="654"/>
     </g>
    </g>
    <g id="text_8">
     <!-- 1e5 -->
     <g transform="translate(690.321875 270.436562) scale(0.1 -0.1)">
      <defs>
       <path id="DejaVuSans-35" d="M 691 4666 
L 3169 4666 
L 3169 4134 
L 1269 4134 
L 1269 2991 
Q 1406 3038 1543 3061 
Q 1681 3084 1819 3084 
Q 2600 3084 3056 2656 
Q 3513 2228 3513 1497 
Q 3513 744 3044 326 
Q 2575 -91 1722 -91 
Q 1428 -91 1123 -41 
Q 819 9 494 109 
L 494 744 
Q 775 591 1075 516 
Q 1375 441 1709 441 
Q 2250 441 2565 725 
Q 2881 1009 2881 1497 
Q 2881 1984 2565 2268 
Q 2250 2553 1709 2553 
Q 1456 2553 1204 2497 
Q 953 2441 691 2322 
L 691 4666 
z
" transform="scale(0.015625)"/>
      </defs>
      <use xlink:href="#DejaVuSans-31"/>
      <use xlink:href="#DejaVuSans-65" x="63.623047"/>
      <use xlink:href="#DejaVuSans-35" x="125.146484"/>
     </g>
    </g>
   </g>
   <g id="matplotlib.axis_2">
    <g id="ytick_1">
     <g id="line2d_13">
      <path d="M 41.15 232.077461 
L 709.2 232.077461 
" clip-path="url(#pa8c08e2093)" style="fill: none; stroke: #b0b0b0; stroke-width: 0.8; stroke-linecap: square"/>
     </g>
     <g id="line2d_14">
      <defs>
       <path id="mabbf52833c" d="M 0 0 
L -3.5 0 
" style="stroke: #000000; stroke-width: 0.8"/>
      </defs>
      <g>
       <use xlink:href="#mabbf52833c" x="41.15" y="232.077461" style="stroke: #000000; stroke-width: 0.8"/>
      </g>
     </g>
     <g id="text_9">
      <!-- 0 -->
      <g transform="translate(27.7875 235.87668) scale(0.1 -0.1)">
       <use xlink:href="#DejaVuSans-30"/>
      </g>
     </g>
    </g>
    <g id="ytick_2">
     <g id="line2d_15">
      <path d="M 41.15 206.643005 
L 709.2 206.643005 
" clip-path="url(#pa8c08e2093)" style="fill: none; stroke: #b0b0b0; stroke-width: 0.8; stroke-linecap: square"/>
     </g>
     <g id="line2d_16">
      <g>
       <use xlink:href="#mabbf52833c" x="41.15" y="206.643005" style="stroke: #000000; stroke-width: 0.8"/>
      </g>
     </g>
     <g id="text_10">
      <!-- 1 -->
      <g transform="translate(27.7875 210.442223) scale(0.1 -0.1)">
       <use xlink:href="#DejaVuSans-31"/>
      </g>
     </g>
    </g>
    <g id="ytick_3">
     <g id="line2d_17">
      <path d="M 41.15 181.208548 
L 709.2 181.208548 
" clip-path="url(#pa8c08e2093)" style="fill: none; stroke: #b0b0b0; stroke-width: 0.8; stroke-linecap: square"/>
     </g>
     <g id="line2d_18">
      <g>
       <use xlink:href="#mabbf52833c" x="41.15" y="181.208548" style="stroke: #000000; stroke-width: 0.8"/>
      </g>
     </g>
     <g id="text_11">
      <!-- 2 -->
      <g transform="translate(27.7875 185.007767) scale(0.1 -0.1)">
       <use xlink:href="#DejaVuSans-32"/>
      </g>
     </g>
    </g>
    <g id="ytick_4">
     <g id="line2d_19">
      <path d="M 41.15 155.774092 
L 709.2 155.774092 
" clip-path="url(#pa8c08e2093)" style="fill: none; stroke: #b0b0b0; stroke-width: 0.8; stroke-linecap: square"/>
     </g>
     <g id="line2d_20">
      <g>
       <use xlink:href="#mabbf52833c" x="41.15" y="155.774092" style="stroke: #000000; stroke-width: 0.8"/>
      </g>
     </g>
     <g id="text_12">
      <!-- 3 -->
      <g transform="translate(27.7875 159.573311) scale(0.1 -0.1)">
       <defs>
        <path id="DejaVuSans-33" d="M 2597 2516 
Q 3050 2419 3304 2112 
Q 3559 1806 3559 1356 
Q 3559 666 3084 287 
Q 2609 -91 1734 -91 
Q 1441 -91 1130 -33 
Q 819 25 488 141 
L 488 750 
Q 750 597 1062 519 
Q 1375 441 1716 441 
Q 2309 441 2620 675 
Q 2931 909 2931 1356 
Q 2931 1769 2642 2001 
Q 2353 2234 1838 2234 
L 1294 2234 
L 1294 2753 
L 1863 2753 
Q 2328 2753 2575 2939 
Q 2822 3125 2822 3475 
Q 2822 3834 2567 4026 
Q 2313 4219 1838 4219 
Q 1578 4219 1281 4162 
Q 984 4106 628 3988 
L 628 4550 
Q 988 4650 1302 4700 
Q 1616 4750 1894 4750 
Q 2613 4750 3031 4423 
Q 3450 4097 3450 3541 
Q 3450 3153 3228 2886 
Q 3006 2619 2597 2516 
z
" transform="scale(0.015625)"/>
       </defs>
       <use xlink:href="#DejaVuSans-33"/>
      </g>
     </g>
    </g>
    <g id="ytick_5">
     <g id="line2d_21">
      <path d="M 41.15 130.339636 
L 709.2 130.339636 
" clip-path="url(#pa8c08e2093)" style="fill: none; stroke: #b0b0b0; stroke-width: 0.8; stroke-linecap: square"/>
     </g>
     <g id="line2d_22">
      <g>
       <use xlink:href="#mabbf52833c" x="41.15" y="130.339636" style="stroke: #000000; stroke-width: 0.8"/>
      </g>
     </g>
     <g id="text_13">
      <!-- 4 -->
      <g transform="translate(27.7875 134.138855) scale(0.1 -0.1)">
       <use xlink:href="#DejaVuSans-34"/>
      </g>
     </g>
    </g>
    <g id="ytick_6">
     <g id="line2d_23">
      <path d="M 41.15 104.90518 
L 709.2 104.90518 
" clip-path="url(#pa8c08e2093)" style="fill: none; stroke: #b0b0b0; stroke-width: 0.8; stroke-linecap: square"/>
     </g>
     <g id="line2d_24">
      <g>
       <use xlink:href="#mabbf52833c" x="41.15" y="104.90518" style="stroke: #000000; stroke-width: 0.8"/>
      </g>
     </g>
     <g id="text_14">
      <!-- 5 -->
      <g transform="translate(27.7875 108.704398) scale(0.1 -0.1)">
       <use xlink:href="#DejaVuSans-35"/>
      </g>
     </g>
    </g>
    <g id="ytick_7">
     <g id="line2d_25">
      <path d="M 41.15 79.470723 
L 709.2 79.470723 
" clip-path="url(#pa8c08e2093)" style="fill: none; stroke: #b0b0b0; stroke-width: 0.8; stroke-linecap: square"/>
     </g>
     <g id="line2d_26">
      <g>
       <use xlink:href="#mabbf52833c" x="41.15" y="79.470723" style="stroke: #000000; stroke-width: 0.8"/>
      </g>
     </g>
     <g id="text_15">
      <!-- 6 -->
      <g transform="translate(27.7875 83.269942) scale(0.1 -0.1)">
       <use xlink:href="#DejaVuSans-36"/>
      </g>
     </g>
    </g>
    <g id="ytick_8">
     <g id="line2d_27">
      <path d="M 41.15 54.036267 
L 709.2 54.036267 
" clip-path="url(#pa8c08e2093)" style="fill: none; stroke: #b0b0b0; stroke-width: 0.8; stroke-linecap: square"/>
     </g>
     <g id="line2d_28">
      <g>
       <use xlink:href="#mabbf52833c" x="41.15" y="54.036267" style="stroke: #000000; stroke-width: 0.8"/>
      </g>
     </g>
     <g id="text_16">
      <!-- 7 -->
      <g transform="translate(27.7875 57.835486) scale(0.1 -0.1)">
       <defs>
        <path id="DejaVuSans-37" d="M 525 4666 
L 3525 4666 
L 3525 4397 
L 1831 0 
L 1172 0 
L 2766 4134 
L 525 4134 
L 525 4666 
z
" transform="scale(0.015625)"/>
       </defs>
       <use xlink:href="#DejaVuSans-37"/>
      </g>
     </g>
    </g>
    <g id="ytick_9">
     <g id="line2d_29">
      <path d="M 41.15 28.601811 
L 709.2 28.601811 
" clip-path="url(#pa8c08e2093)" style="fill: none; stroke: #b0b0b0; stroke-width: 0.8; stroke-linecap: square"/>
     </g>
     <g id="line2d_30">
      <g>
       <use xlink:href="#mabbf52833c" x="41.15" y="28.601811" style="stroke: #000000; stroke-width: 0.8"/>
      </g>
     </g>
     <g id="text_17">
      <!-- 8 -->
      <g transform="translate(27.7875 32.40103) scale(0.1 -0.1)">
       <use xlink:href="#DejaVuSans-38"/>
      </g>
     </g>
    </g>
    <g id="text_18">
     <!-- Episodic Return -->
     <g transform="translate(21.291875 179.095625) rotate(-90) scale(0.12 -0.12)">
      <defs>
       <path id="DejaVuSans-45" d="M 628 4666 
L 3578 4666 
L 3578 4134 
L 1259 4134 
L 1259 2753 
L 3481 2753 
L 3481 2222 
L 1259 2222 
L 1259 531 
L 3634 531 
L 3634 0 
L 628 0 
L 628 4666 
z
" transform="scale(0.015625)"/>
       <path id="DejaVuSans-6f" d="M 1959 3097 
Q 1497 3097 1228 2736 
Q 959 2375 959 1747 
Q 959 1119 1226 758 
Q 1494 397 1959 397 
Q 2419 397 2687 759 
Q 2956 1122 2956 1747 
Q 2956 2369 2687 2733 
Q 2419 3097 1959 3097 
z
M 1959 3584 
Q 2709 3584 3137 3096 
Q 3566 2609 3566 1747 
Q 3566 888 3137 398 
Q 2709 -91 1959 -91 
Q 1206 -91 779 398 
Q 353 888 353 1747 
Q 353 2609 779 3096 
Q 1206 3584 1959 3584 
z
" transform="scale(0.015625)"/>
       <path id="DejaVuSans-64" d="M 2906 2969 
L 2906 4863 
L 3481 4863 
L 3481 0 
L 2906 0 
L 2906 525 
Q 2725 213 2448 61 
Q 2172 -91 1784 -91 
Q 1150 -91 751 415 
Q 353 922 353 1747 
Q 353 2572 751 3078 
Q 1150 3584 1784 3584 
Q 2172 3584 2448 3432 
Q 2725 3281 2906 2969 
z
M 947 1747 
Q 947 1113 1208 752 
Q 1469 391 1925 391 
Q 2381 391 2643 752 
Q 2906 1113 2906 1747 
Q 2906 2381 2643 2742 
Q 2381 3103 1925 3103 
Q 1469 3103 1208 2742 
Q 947 2381 947 1747 
z
" transform="scale(0.015625)"/>
       <path id="DejaVuSans-63" d="M 3122 3366 
L 3122 2828 
Q 2878 2963 2633 3030 
Q 2388 3097 2138 3097 
Q 1578 3097 1268 2742 
Q 959 2388 959 1747 
Q 959 1106 1268 751 
Q 1578 397 2138 397 
Q 2388 397 2633 464 
Q 2878 531 3122 666 
L 3122 134 
Q 2881 22 2623 -34 
Q 2366 -91 2075 -91 
Q 1284 -91 818 406 
Q 353 903 353 1747 
Q 353 2603 823 3093 
Q 1294 3584 2113 3584 
Q 2378 3584 2631 3529 
Q 2884 3475 3122 3366 
z
" transform="scale(0.015625)"/>
       <path id="DejaVuSans-52" d="M 2841 2188 
Q 3044 2119 3236 1894 
Q 3428 1669 3622 1275 
L 4263 0 
L 3584 0 
L 2988 1197 
Q 2756 1666 2539 1819 
Q 2322 1972 1947 1972 
L 1259 1972 
L 1259 0 
L 628 0 
L 628 4666 
L 2053 4666 
Q 2853 4666 3247 4331 
Q 3641 3997 3641 3322 
Q 3641 2881 3436 2590 
Q 3231 2300 2841 2188 
z
M 1259 4147 
L 1259 2491 
L 2053 2491 
Q 2509 2491 2742 2702 
Q 2975 2913 2975 3322 
Q 2975 3731 2742 3939 
Q 2509 4147 2053 4147 
L 1259 4147 
z
" transform="scale(0.015625)"/>
       <path id="DejaVuSans-75" d="M 544 1381 
L 544 3500 
L 1119 3500 
L 1119 1403 
Q 1119 906 1312 657 
Q 1506 409 1894 409 
Q 2359 409 2629 706 
Q 2900 1003 2900 1516 
L 2900 3500 
L 3475 3500 
L 3475 0 
L 2900 0 
L 2900 538 
Q 2691 219 2414 64 
Q 2138 -91 1772 -91 
Q 1169 -91 856 284 
Q 544 659 544 1381 
z
M 1991 3584 
L 1991 3584 
z
" transform="scale(0.015625)"/>
      </defs>
      <use xlink:href="#DejaVuSans-45"/>
      <use xlink:href="#DejaVuSans-70" x="63.183594"/>
      <use xlink:href="#DejaVuSans-69" x="126.660156"/>
      <use xlink:href="#DejaVuSans-73" x="154.443359"/>
      <use xlink:href="#DejaVuSans-6f" x="206.542969"/>
      <use xlink:href="#DejaVuSans-64" x="267.724609"/>
      <use xlink:href="#DejaVuSans-69" x="331.201172"/>
      <use xlink:href="#DejaVuSans-63" x="358.984375"/>
      <use xlink:href="#DejaVuSans-20" x="413.964844"/>
      <use xlink:href="#DejaVuSans-52" x="445.751953"/>
      <use xlink:href="#DejaVuSans-65" x="510.734375"/>
      <use xlink:href="#DejaVuSans-74" x="572.257812"/>
      <use xlink:href="#DejaVuSans-75" x="611.466797"/>
      <use xlink:href="#DejaVuSans-72" x="674.845703"/>
      <use xlink:href="#DejaVuSans-6e" x="714.208984"/>
     </g>
    </g>
    <g id="text_19">
     <!-- 1e6 -->
     <g transform="translate(41.15 18.72) scale(0.1 -0.1)">
      <use xlink:href="#DejaVuSans-31"/>
      <use xlink:href="#DejaVuSans-65" x="63.623047"/>
      <use xlink:href="#DejaVuSans-36" x="125.146484"/>
     </g>
    </g>
   </g>
   <g id="line2d_31">
    <path d="M 71.515909 229.827228 
L 72.97858 229.661199 
L 73.709916 225.529344 
L 75.172587 230.208763 
L 78.09793 232.058872 
L 78.09793 230.539948 
L 78.829266 195.758609 
L 78.829266 230.904081 
L 78.829266 210.609055 
L 80.291937 231.921984 
L 80.291937 229.762872 
L 81.023272 213.340862 
L 82.485944 205.365184 
L 83.217279 230.265664 
L 83.948615 213.801919 
L 83.948615 164.719937 
L 84.679951 218.122066 
L 86.142622 209.965953 
L 87.112861 224.676312 
L 88.336629 140.387047 
L 88.814435 143.623467 
L 89.0509 153.948547 
L 90.001636 168.138354 
L 90.769539 140.489739 
L 91.80316 232.928416 
L 92.315095 232.513107 
L 93.143942 148.98788 
L 93.341402 152.260494 
L 93.419412 232.771295 
L 94.150747 110.872904 
L 94.606613 124.636671 
L 94.89671 232.842645 
L 96.042469 233.045659 
L 96.359381 128.146696 
L 96.649477 232.956986 
L 97.705038 232.829616 
L 97.822052 104.208619 
L 98.112149 136.686474 
L 98.436374 232.853217 
L 98.667964 232.560902 
L 98.841046 232.969856 
L 98.843484 124.02861 
L 99.57482 134.173607 
L 100.744957 216.480908 
L 100.957044 96.653543 
L 101.359279 115.946595 
L 101.77614 231.744813 
L 103.243687 233.088809 
L 104.343128 232.869572 
L 104.706358 134.97071 
L 106.75166 232.28778 
L 107.631701 138.404908 
L 108.394728 118.007333 
L 108.945667 126.224042 
L 109.343026 158.33126 
L 110.074362 124.756099 
L 110.7155 129.830031 
L 111.459024 118.955428 
L 113.73104 120.697345 
L 114.771975 223.91829 
L 114.796352 119.059912 
L 116.202955 170.579667 
L 116.259024 101.303305 
L 116.566185 133.528443 
L 118.028856 119.294367 
L 118.275072 193.68447 
L 119.159988 125.149201 
L 119.184366 134.173925 
L 119.491527 126.706578 
L 119.915702 150.365913 
L 121.378373 109.700249 
L 122.616768 194.902886 
L 123.879541 133.133306 
L 124.547494 163.045028 
L 125.130125 181.343475 
L 125.390968 233.066345 
L 125.537235 169.197419 
L 126.746377 233.058122 
L 128.869688 146.422828 
L 130.332359 104.202985 
L 130.451811 230.134216 
L 130.739469 124.755501 
L 131.687768 232.175127 
L 132.965168 86.405504 
L 133.257702 138.135869 
L 133.274766 226.347793 
L 133.508794 233.088235 
L 134.313263 133.032763 
L 135.451709 74.229572 
L 136.136726 101.796072 
L 136.183044 84.51444 
L 137.677407 103.576916 
L 137.969941 87.333188 
L 140.571058 91.204592 
L 140.895284 87.677609 
L 141.302394 76.407588 
L 143.820626 100.253752 
L 144.734796 98.663284 
L 144.959072 96.328045 
L 145.64409 80.244185 
L 147.106761 71.222215 
L 148.20864 75.463563 
L 148.569432 68.198389 
L 149.12281 78.332061 
L 150.078422 81.365896 
L 151.121794 77.606925 
L 151.133983 79.793614 
L 152.779488 88.240295 
L 153.315801 73.595135 
L 154.047136 66.843775 
L 154.059325 86.411354 
L 154.973495 96.939426 
L 155.521997 83.279877 
L 155.82672 84.593986 
L 156.660442 77.714945 
L 156.984668 79.391762 
L 157.289391 85.589173 
L 157.703815 69.433181 
L 157.798888 233.087537 
L 158.020727 81.814178 
L 158.854449 78.021188 
L 159.178675 68.249181 
L 160.724231 71.522074 
L 161.779792 81.106566 
L 162.186902 78.741925 
L 163.973799 71.96087 
L 164.380909 63.456783 
L 166.574916 64.508841 
L 167.954702 74.452632 
L 168.037587 76.49666 
L 168.361813 71.40734 
L 168.686038 78.133265 
L 168.768923 72.161522 
L 168.990761 78.026199 
L 169.417374 70.63679 
L 169.824484 72.85648 
L 170.55582 70.829252 
L 171.611381 62.705678 
L 172.018491 70.816001 
L 172.749826 73.651345 
L 173.156937 65.417652 
L 173.481162 70.356032 
L 173.644494 233.041707 
L 173.805388 74.858783 
L 174.375829 77.976754 
L 174.536723 73.148621 
L 175.107165 72.592344 
L 175.268059 65.427534 
L 175.999395 70.363204 
L 176.27974 68.064743 
L 177.462066 71.345686 
L 178.032508 70.114493 
L 178.763843 83.934941 
L 179.331847 63.159174 
L 179.656073 70.410957 
L 180.063183 64.552181 
L 180.794519 67.724824 
L 181.525854 64.762575 
L 182.130425 62.798361 
L 182.25719 66.344586 
L 182.420521 76.593616 
L 182.581415 65.712298 
L 183.719861 67.478339 
L 184.775422 69.44956 
L 185.182532 71.742833 
L 185.345864 64.267582 
L 186.0772 72.703441 
L 186.808535 71.704643 
L 187.376539 69.710671 
L 187.539871 73.065628 
L 187.700765 66.576319 
L 188.107875 70.143005 
L 188.4321 70.157872 
L 190.175117 63.107301 
L 190.301882 66.599871 
L 190.906453 66.734 
L 191.033218 65.934646 
L 191.196549 74.324964 
L 191.637788 62.206692 
L 191.764553 72.35607 
L 193.55145 68.828998 
L 193.831795 67.284122 
L 194.121892 86.451757 
L 194.563131 62.183063 
L 195.014121 66.348477 
L 195.294467 63.370624 
L 195.584563 67.854299 
L 196.025802 60.809768 
L 196.757138 61.867371 
L 197.259322 69.079629 
L 197.615238 64.287027 
L 197.939464 66.926221 
L 197.990657 77.857899 
L 199.07791 68.054048 
L 199.402135 66.156269 
L 200.184664 65.405851 
L 200.916 72.401878 
L 201.596142 68.044548 
L 202.327478 71.147336 
L 203.058813 64.743474 
L 203.339159 66.445497 
L 204.197259 67.793014 
L 204.80183 62.226544 
L 208.585273 63.795125 
L 209.189844 62.198566 
L 209.921179 58.005988 
L 210.37217 60.958839 
L 211.103505 59.033413 
L 211.383851 56.297034 
L 211.834841 60.525055 
L 212.846522 55.345035 
L 214.028848 60.672982 
L 214.760184 58.938403 
L 215.684104 60.003877 
L 215.771865 56.663468 
L 215.898629 61.708228 
L 216.222855 61.245397 
L 217.146776 54.613222 
L 217.361301 58.711349 
L 217.965871 53.626276 
L 218.092636 63.86727 
L 218.609447 60.813291 
L 220.072118 58.185721 
L 220.159878 53.826331 
L 220.803454 63.254732 
L 222.07354 55.473861 
L 222.48065 60.976262 
L 224.267547 55.184442 
L 224.547892 57.701512 
L 224.674657 60.058256 
L 224.679533 233.01803 
L 225.410868 49.458345 
L 226.142204 48.625163 
L 227.192889 55.587934 
L 227.385475 54.28419 
L 228.11681 58.021579 
L 228.331335 60.285271 
L 228.336211 50.873785 
L 228.655561 58.343834 
L 229.067546 48.305376 
L 229.386896 53.755204 
L 229.579481 54.405258 
L 230.118232 59.09869 
L 230.310817 50.609814 
L 231.773488 52.934434 
L 232.504824 49.532906 
L 232.724225 50.153011 
L 233.23616 50.872005 
L 233.450685 55.391123 
L 234.698831 48.82668 
L 234.913356 55.78851 
L 234.918232 50.962831 
L 235.644692 50.560611 
L 237.107363 54.334283 
L 237.431588 53.687523 
L 238.162924 51.517862 
L 238.355509 49.363818 
L 238.89426 49.310393 
L 239.220923 232.994398 
L 240.037581 42.620202 
L 241.819602 51.416124 
L 242.226712 49.813486 
L 243.060435 48.292506 
L 243.282274 53.720308 
L 243.650379 233.091264 
L 243.791771 46.579915 
L 244.523106 49.012135 
L 245.254442 41.732781 
L 245.844386 44.092565 
L 246.614726 52.429166 
L 246.717113 45.622155 
L 246.826814 230.164545 
L 248.260232 41.882069 
L 249.064701 45.372706 
L 249.796036 43.434893 
L 249.839917 233.087182 
L 249.864294 51.108621 
L 251.326966 54.086144 
L 251.734076 55.715348 
L 252.138748 44.697765 
L 253.516097 45.297598 
L 253.520973 50.052189 
L 254.978768 45.962175 
L 255.064091 47.685067 
L 258.720769 49.766165 
L 259.047432 63.195431 
L 259.366782 45.597738 
L 259.778768 54.049315 
L 260.098118 44.558155 
L 260.102993 55.192861 
L 263.435446 58.645003 
L 263.840119 44.760054 
L 264.486132 45.290769 
L 265.629453 53.455815 
L 265.948803 44.128389 
L 266.765461 43.775143 
L 267.411474 44.105524 
L 268.147685 55.518587 
L 268.554796 56.40742 
L 268.879021 50.446219 
L 269.610357 49.515992 
L 271.073028 54.378068 
L 272.535699 52.502175 
L 272.613708 42.478609 
L 272.847736 43.024928 
L 273.674145 59.682093 
L 274.310407 42.958735 
L 274.729706 52.032642 
L 275.136816 56.009854 
L 276.270387 42.177592 
L 276.599488 52.970118 
L 277.001722 41.8707 
L 277.23575 43.813383 
L 278.062159 52.83646 
L 278.386384 48.584188 
L 279.849056 51.123424 
L 281.260534 42.03891 
L 282.121072 39.781386 
L 282.803652 233.090841 
L 282.852407 38.955224 
L 282.971859 232.738667 
L 283.181508 53.309948 
L 284.315079 41.119824 
L 284.968405 50.491378 
L 285.897201 44.440826 
L 286.16292 229.128397 
L 286.894256 41.351544 
L 287.31843 41.161587 
L 288.300858 53.157392 
L 288.44225 41.277416 
L 289.356419 54.764799 
L 289.624575 228.420929 
L 289.904921 40.745543 
L 290.087755 47.971167 
L 291.087247 39.934286 
L 293.07648 42.118241 
L 294.882879 49.910569 
L 295.614214 49.299672 
L 296.933056 39.778665 
L 297.174397 230.698614 
L 297.905733 41.535385 
L 298.132447 49.223954 
L 298.637068 42.320088 
L 298.671197 230.253408 
L 299.368404 39.015911 
L 299.595118 46.601458 
L 302.244991 42.716815 
L 302.481456 230.862656 
L 302.520461 50.7466 
L 303.25911 39.315758 
L 303.983132 47.379307 
L 304.390242 48.304892 
L 304.714468 46.234934 
L 304.721781 38.071542 
L 305.453117 40.997509 
L 305.674955 39.915858 
L 306.184452 40.639634 
L 306.915788 40.872067 
L 307.315585 48.920724 
L 309.387702 39.068713 
L 309.509592 53.163624 
L 311.296488 47.479124 
L 311.520765 41.024355 
L 313.180896 39.652141 
L 314.229144 232.808989 
L 314.468047 230.779569 
L 314.953167 48.242578 
L 315.360277 52.345092 
L 315.538235 42.582521 
L 317.000906 41.258925 
L 317.110607 233.063694 
L 317.147173 48.066432 
L 317.878509 48.980826 
L 318.285619 50.996901 
L 318.609845 48.863687 
L 320.072516 49.752571 
L 321.050068 41.624952 
L 321.210962 50.599144 
L 321.781404 48.713751 
L 322.997859 48.821313 
L 325.155299 39.883391 
L 325.923201 45.541044 
L 325.964644 47.746809 
L 326.61797 39.374193 
L 326.654537 46.000734 
L 327.427315 40.181648 
L 328.868046 37.714252 
L 328.889986 40.884402 
L 331.327772 39.105593 
L 331.773886 47.113593 
L 332.505222 45.012796 
L 333.967893 43.805397 
L 334.699229 44.562644 
L 334.938132 228.913241 
L 335.106339 46.040844 
L 336.1619 44.058038 
L 337.188208 233.094438 
L 337.441738 48.012828 
L 338.650879 35.710042 
L 338.763017 45.855427 
L 339.494353 45.912248 
L 340.276882 232.790142 
L 340.681554 233.088768 
L 341.008218 37.261824 
L 341.68836 45.883367 
L 342.012585 43.589268 
L 342.743921 42.104277 
L 344.101767 37.981364 
L 345.564439 39.768084 
L 345.696079 225.881434 
L 346.295774 37.931704 
L 346.807709 46.512399 
L 347.02711 38.130067 
L 347.890086 35.814883 
L 348.270381 44.67771 
L 349.723301 35.196164 
L 350.020711 226.071203 
L 350.057277 47.137044 
L 350.118222 232.75291 
L 350.342498 231.366175 
L 350.752046 36.529604 
L 351.073834 37.129793 
L 352.251284 44.391547 
L 352.382925 35.216766 
L 353.267841 37.828503 
L 353.713956 41.009375 
L 353.845596 35.729995 
L 353.950421 233.070808 
L 355.461848 37.047309 
L 356.193183 41.181362 
L 356.315073 48.628291 
L 356.422335 231.486356 
L 356.751436 221.775046 
L 357.736302 35.56705 
L 358.101969 47.508705 
L 358.467637 35.560767 
L 358.833305 45.185102 
L 359.240415 46.450072 
L 359.564641 41.826355 
L 361.758648 44.987311 
L 363.586987 38.254594 
L 364.471903 37.476147 
L 364.68399 43.662862 
L 365.527464 231.532237 
L 365.822436 46.224748 
L 367.397245 36.996135 
L 368.340668 50.656626 
L 369.80334 43.639742 
L 369.86916 36.706144 
L 370.534675 43.419722 
L 371.648743 37.64802 
L 371.997347 49.443008 
L 372.404457 47.46586 
L 374.191354 44.835187 
L 374.313243 39.885299 
L 374.922689 43.667733 
L 375.398057 233.083798 
L 376.061135 48.0375 
L 378.118626 228.427879 
L 378.255142 46.530241 
L 378.701257 42.81868 
L 379.693435 37.074168 
L 379.717813 46.356575 
L 379.86408 227.74224 
L 380.163928 44.000683 
L 380.449149 44.797303 
L 382.618778 38.42442 
L 384.081449 44.307575 
L 384.551942 41.780267 
L 385.283277 41.511858 
L 385.568498 43.053542 
L 386.39247 40.339787 
L 387.477284 43.001643 
L 387.762505 43.397721 
L 388.75956 35.059594 
L 389.490895 40.429215 
L 389.956512 44.854568 
L 390.222231 35.661895 
L 391.419184 47.105581 
L 391.865298 43.31586 
L 392.243155 37.188165 
L 392.881855 46.934624 
L 393.705826 38.504437 
L 394.161692 39.254893 
L 395.521976 48.547664 
L 395.807197 46.762763 
L 398.001204 51.300524 
L 398.09384 36.211686 
L 400.926547 45.314322 
L 401.372662 43.531964 
L 402.103997 41.164677 
L 402.389218 43.662913 
L 402.835333 42.893127 
L 403.120554 44.389003 
L 403.552042 232.662036 
L 403.851889 43.219947 
L 404.283377 38.050762 
L 405.02934 42.84896 
L 405.746049 35.344562 
L 406.045896 46.183888 
L 406.492011 42.928748 
L 406.869868 37.558924 
L 407.508568 44.467418 
L 407.752346 35.11588 
L 408.332539 39.622624 
L 408.971239 43.558886 
L 409.063875 36.546696 
L 411.611361 42.031687 
L 412.627917 43.949458 
L 413.108161 37.63744 
L 413.178857 233.092922 
L 413.359253 44.194086 
L 413.788303 233.094303 
L 413.805368 41.336703 
L 414.090588 44.716345 
L 414.536703 42.854479 
L 414.821924 44.991864 
L 415.268039 45.042453 
L 415.999374 44.75105 
L 416.835535 41.707652 
L 417.015931 44.604179 
L 418.298206 37.826138 
L 418.629745 38.058978 
L 418.924717 44.390428 
L 419.361081 37.654074 
L 419.760877 37.814374 
L 420.492213 40.305781 
L 421.118724 43.56569 
L 421.32106 233.079024 
L 421.555088 36.664279 
L 421.85006 42.865212 
L 423.597952 45.208006 
L 423.749094 35.404053 
L 424.48043 34.291651 
L 425.060623 43.701917 
L 425.709074 36.718633 
L 425.791959 47.417115 
L 425.943101 36.165166 
L 426.44041 37.772166 
L 426.523294 42.98422 
L 426.969409 41.944472 
L 427.405773 35.756167 
L 427.700745 42.370499 
L 428.868444 34.708687 
L 428.98302 233.053382 
L 429.714356 38.371376 
L 429.936194 231.439383 
L 430.179973 43.244033 
L 430.911308 44.023854 
L 432.088759 41.08522 
L 432.210648 232.713915 
L 432.837159 36.175874 
L 433.568494 35.937477 
L 433.836651 44.519304 
L 433.836651 228.736535 
L 434.282765 40.23253 
L 435.299322 43.129069 
L 435.696681 225.529712 
L 436.252496 37.185126 
L 437.890688 35.793887 
L 438.224665 41.995786 
L 438.670779 39.184783 
L 439.353359 34.050418 
L 439.626391 37.468033 
L 439.687336 43.947321 
L 440.133451 42.279406 
L 440.357727 37.386262 
L 440.418672 44.494416 
L 440.452801 233.081545 
L 440.864786 40.952859 
L 441.184136 40.84667 
L 441.262145 233.09103 
L 441.993481 38.431974 
L 442.220195 231.253057 
L 442.327458 42.44342 
L 443.010037 36.30868 
L 443.790129 41.142422 
L 446.349804 32.551922 
L 447.000692 42.520512 
L 448.178143 39.644536 
L 448.463364 44.32309 
L 449.640814 42.927298 
L 449.701759 44.889197 
L 449.979666 36.120987 
L 450.657371 43.880874 
L 451.103485 42.314836 
L 451.16443 36.892808 
L 451.220499 233.094438 
L 452.819686 37.785735 
L 452.851377 44.800813 
L 453.473013 36.594462 
L 454.028828 39.764243 
L 455.157523 37.207877 
L 455.77672 44.543136 
L 455.830351 35.776871 
L 457.293023 36.083064 
L 458.702063 43.835422 
L 459.528472 36.39358 
L 460.991143 34.659103 
L 461.008208 36.751074 
L 461.722479 35.604718 
L 463.821412 43.703354 
L 464.267527 43.061757 
L 464.664886 41.535283 
L 464.884287 231.501484 
L 464.998862 41.294342 
L 465.379157 35.951682 
L 466.502976 34.665004 
L 467.073418 35.041803 
L 467.234312 37.574604 
L 467.804754 36.456162 
L 469.386876 42.092755 
L 470.454626 232.478824 
L 470.849548 41.872264 
L 471.512625 231.450037 
L 472.536495 36.799311 
L 473.706632 35.231277 
L 474.791447 44.391458 
L 475.169303 37.120014 
L 475.237561 41.52207 
L 475.854321 38.585509 
L 476.631975 37.066741 
L 480.242335 38.237248 
L 480.356911 42.109517 
L 481.088247 43.109053 
L 481.09556 35.002799 
L 481.407596 224.091701 
L 482.436342 36.835886 
L 482.870268 36.377493 
L 483.282254 43.530514 
L 483.899013 40.263 
L 484.29881 45.954265 
L 486.017449 35.510572 
L 486.09302 39.48875 
L 486.492817 47.032101 
L 486.748784 35.857155 
L 486.938932 42.985734 
L 487.66783 233.058289 
L 487.731212 230.008551 
L 488.401603 42.281008 
L 488.686824 45.959975 
L 489.132939 44.357706 
L 489.41816 44.235672 
L 491.324508 37.657838 
L 492.055843 40.060809 
L 492.353253 230.976707 
L 492.789617 44.302081 
L 493.815925 37.099158 
L 494.981186 38.748086 
L 494.983624 45.663524 
L 495.714959 43.869136 
L 496.197641 36.593864 
L 496.694949 232.506251 
L 496.928977 36.65347 
L 497.908966 45.875825 
L 498.640302 43.20784 
L 499.122984 34.571138 
L 499.371638 42.601177 
L 499.620292 37.693535 
L 499.656859 46.09694 
L 499.854319 35.703289 
L 500.585655 34.590023 
L 501.221917 233.093623 
L 501.253608 35.819436 
L 501.953252 34.436081 
L 503.313537 46.899117 
L 504.178951 35.209975 
L 504.444669 232.62169 
L 504.776208 43.224589 
L 505.002922 34.106374 
L 505.400281 36.260978 
L 505.953658 43.871336 
L 506.131617 36.375687 
L 506.411962 227.699457 
L 507.289565 33.204405 
L 507.701551 44.385404 
L 508.147665 41.829381 
L 508.320748 39.168123 
L 508.944821 231.374988 
L 509.629839 233.070704 
L 511.13639 224.539307 
L 511.594694 230.409727 
L 512.089564 42.723225 
L 512.535679 39.653006 
L 513.345024 233.066577 
L 514.07636 31.785455 
L 514.839386 36.738815 
L 515.283063 231.134436 
L 516.014399 36.307701 
L 516.192357 40.569486 
L 518.188904 231.921051 
L 519.507746 39.73596 
L 519.849036 42.116702 
L 520.134257 42.198461 
L 520.278086 232.966738 
L 520.970417 41.612947 
L 522.043043 39.136381 
L 522.284383 34.28308 
L 522.328263 43.029811 
L 522.381895 233.079208 
L 522.554978 232.649056 
L 522.572042 43.069922 
L 522.774378 40.555026 
L 523.790935 41.722302 
L 526.431056 41.025017 
L 526.716277 42.442771 
L 527.103885 33.029835 
L 527.927857 233.083526 
L 529.385652 227.93053 
L 529.856145 36.241431 
L 530.372956 42.694217 
L 531.633291 33.25039 
L 531.738115 233.070138 
L 531.903885 232.741561 
L 532.225672 214.095399 
L 532.242737 232.583688 
L 532.391442 232.743733 
L 534.192965 232.494007 
L 535.036439 33.366562 
L 535.492305 41.604986 
L 535.850659 232.253495 
L 537.335271 228.874201 
L 537.379151 34.920556 
L 538.132427 40.464772 
L 538.417648 40.528867 
L 538.617546 217.955764 
L 539.166048 224.561419 
L 539.57072 233.093897 
L 540.23136 33.466227 
L 540.294742 233.094438 
L 540.326434 38.894881 
L 540.61653 226.542223 
L 540.740857 232.79851 
L 541.345428 230.989386 
L 542.074326 42.140012 
L 542.427805 33.43699 
L 542.520441 40.252801 
L 542.569196 229.917149 
L 543.300532 34.215742 
L 543.590628 233.026743 
L 544.66813 34.244979 
L 546.052792 32.764745 
L 546.623234 233.073733 
L 548.129785 232.184746 
L 548.656347 42.086447 
L 548.91719 228.87363 
L 549.102461 39.18856 
L 549.387682 42.370945 
L 550.872294 34.68291 
L 551.603629 35.782428 
L 552.334965 36.146103 
L 553.151623 33.826214 
L 553.775696 43.141443 
L 554.221811 41.614715 
L 554.380267 232.864014 
L 554.953146 41.72758 
L 555.111603 34.929522 
L 555.528464 233.066548 
L 555.679607 33.779465 
L 556.410942 35.727783 
L 556.549896 226.620928 
L 556.701039 43.961628 
L 556.903375 231.599603 
L 557.18372 227.614653 
L 557.642024 231.451458 
L 557.878489 41.305546 
L 558.16371 43.429412 
L 558.373359 35.05129 
L 559.104695 36.650837 
L 559.34116 39.627877 
L 559.999362 232.772402 
L 561.089053 42.064879 
L 561.535167 40.54545 
L 561.681434 39.407958 
L 562.266503 38.910371 
L 562.41277 34.189914 
L 562.551724 42.806688 
L 563.82181 34.984359 
L 564.46051 40.187854 
L 564.821302 34.75316 
L 565.191845 39.996981 
L 566.542379 232.989632 
L 566.939738 41.118641 
L 567.329783 229.434605 
L 567.671073 42.254353 
L 568.575492 232.046283 
L 568.780266 231.973943 
L 569.133745 41.68162 
L 569.86508 41.585872 
L 570.457462 226.548527 
L 570.59154 36.085149 
L 571.327751 42.966823 
L 571.773866 39.057814 
L 572.383313 33.684709 
L 572.983008 229.730477 
L 573.32186 229.904341 
L 573.346238 39.765057 
L 573.577827 231.025516 
L 574.560255 227.605461 
L 576.244765 231.403497 
L 577.168685 233.066223 
L 577.436842 42.948472 
L 577.507538 232.987758 
L 578.641108 42.167965 
L 578.723993 229.73943 
L 578.899513 37.339233 
L 579.087223 39.898283 
L 579.818558 41.838207 
L 580.34512 233.081351 
L 583.994485 226.528859 
L 584.206572 40.413585 
L 584.830645 35.381403 
L 585.561981 45.979865 
L 585.788695 232.918839 
L 585.917898 233.008729 
L 586.122672 231.980393 
L 586.293317 53.544963 
L 587.417136 44.414323 
L 587.585343 38.033709 
L 587.86325 42.102319 
L 589.121148 47.783956 
L 589.937806 47.574987 
L 590.057257 41.95223 
L 590.995805 233.091033 
L 591.212768 36.554606 
L 591.432168 232.988441 
L 591.624753 232.294716 
L 592.251264 45.158536 
L 592.555987 233.079133 
L 593.267821 45.92644 
L 594.445271 43.383846 
L 594.730492 42.273658 
L 594.749994 47.094759 
L 595.681228 40.42966 
L 596.412564 48.963657 
L 597.1439 43.304682 
L 597.23166 231.600243 
L 597.370614 46.126393 
L 597.390116 232.493853 
L 597.855733 230.066268 
L 598.38717 41.519717 
L 599.571934 34.316653 
L 600.295956 41.047844 
L 600.703066 229.267237 
L 600.893214 232.348356 
L 601.312513 43.559789 
L 602.043848 44.118419 
L 602.489963 44.97336 
L 603.421197 47.586483 
L 603.952634 42.566001 
L 604.237855 41.927279 
L 604.388998 54.027467 
L 604.969191 47.575534 
L 605.415306 40.908756 
L 605.819978 36.918446 
L 606.161268 218.951773 
L 606.877977 41.340379 
L 607.175387 42.933542 
L 608.145626 230.622468 
L 609.008602 231.000394 
L 609.071984 41.757071 
L 609.80332 41.392863 
L 611.070968 34.592236 
L 612.282547 43.480052 
L 612.728662 40.628328 
L 613.18209 35.525706 
L 613.450247 228.701575 
L 613.745219 44.398656 
L 614.912918 33.738338 
L 615.84659 232.065729 
L 615.863654 38.827912 
L 616.59499 40.878463 
L 616.758322 232.775432 
L 618.040597 35.371382 
L 618.133233 42.107405 
L 618.34532 224.954579 
L 619.076656 33.909333 
L 620.415 39.31399 
L 621.50469 41.747966 
L 621.816726 227.842842 
L 622.830845 227.305837 
L 624.071678 38.343615 
L 624.715253 44.485044 
L 625.161368 42.246685 
L 625.361267 34.003059 
L 625.892704 39.096093 
L 625.948773 233.093899 
L 626.177925 43.779225 
L 626.797122 41.518534 
L 626.923887 32.641858 
L 627.738107 47.550646 
L 629.103267 43.611243 
L 629.932114 232.679551 
L 630.139326 232.935676 
L 630.280718 40.244243 
L 631.012053 40.13504 
L 631.297274 42.938095 
L 632.02861 42.526489 
L 632.333333 36.264577 
L 633.20606 40.971185 
L 633.491281 41.632188 
L 633.88864 225.45714 
L 634.619976 32.529972 
L 636.528762 36.945572 
L 637.342982 233.089196 
L 637.594074 41.389899 
L 637.879295 42.573441 
L 638.610631 40.493793 
L 639.522362 230.236216 
L 639.536989 40.894563 
L 640.39509 41.609882 
L 640.519417 40.188287 
L 640.84608 33.51632 
L 643.040087 34.227633 
L 643.771422 34.840629 
L 643.995699 233.05772 
L 644.176095 40.980812 
L 644.783103 35.521624 
L 645.45837 33.455557 
L 646.97711 37.219017 
L 647.776704 40.293242 
L 648.117994 42.192 
L 650.02678 40.122628 
L 650.30225 33.954454 
L 651.433382 40.905564 
L 652.506008 41.517415 
L 656.630741 33.725722 
L 656.750192 37.717673 
L 657.625357 41.021024 
L 658.093412 34.130588 
L 661.72815 40.98497 
L 662.013371 42.850549 
L 662.744707 43.349446 
L 663.190822 39.477584 
L 663.332213 36.233852 
L 663.476042 42.092526 
L 664.207378 40.751202 
L 664.794884 38.878196 
L 665.18493 33.044803 
L 665.52622 44.382645 
L 666.8475 39.875761 
L 667.378937 32.076755 
L 667.578835 40.417998 
L 667.864056 40.775517 
L 668.595392 41.417763 
L 670.058063 40.903707 
L 670.665072 233.094545 
L 670.789399 41.37764 
L 671.376905 41.186475 
L 671.450039 32.231232 
L 672.25207 40.670244 
L 672.983406 40.086078 
L 673.254 233.091762 
L 673.488027 230.857459 
L 674.160856 38.524835 
L 675.682034 32.675139 
L 675.908748 41.208666 
L 676.354863 41.754273 
L 676.64496 231.001443 
L 677.561567 33.23195 
L 678.834091 41.553748 
L 678.834091 41.553748 
" clip-path="url(#pa8c08e2093)" style="fill: none; stroke: #1f77b4; stroke-width: 1.5; stroke-linecap: square"/>
   </g>
   <g id="patch_3">
    <path d="M 41.15 243.16 
L 41.15 21.72 
" style="fill: none; stroke: #000000; stroke-width: 0.8; stroke-linejoin: miter; stroke-linecap: square"/>
   </g>
   <g id="patch_4">
    <path d="M 709.2 243.16 
L 709.2 21.72 
" style="fill: none; stroke: #000000; stroke-width: 0.8; stroke-linejoin: miter; stroke-linecap: square"/>
   </g>
   <g id="patch_5">
    <path d="M 41.15 243.16 
L 709.2 243.16 
" style="fill: none; stroke: #000000; stroke-width: 0.8; stroke-linejoin: miter; stroke-linecap: square"/>
   </g>
   <g id="patch_6">
    <path d="M 41.15 21.72 
L 709.2 21.72 
" style="fill: none; stroke: #000000; stroke-width: 0.8; stroke-linejoin: miter; stroke-linecap: square"/>
   </g>
  </g>
 </g>
 <defs>
  <clipPath id="pa8c08e2093">
   <rect x="41.15" y="21.72" width="668.05" height="221.44"/>
  </clipPath>
 </defs>
</svg>
